<svg width="32" height="26" viewBox="0 0 32 26" fill="none" xmlns="http://www.w3.org/2000/svg">
<rect width="32" height="26" fill="#F4FAFD"/>
<path fill-rule="evenodd" clip-rule="evenodd" d="M7.04179 13.7314L13.0897 15.3161L12.0774 23.3681C11.9098 24.8666 10.6428 25.9999 9.1349 25.9999C7.40047 25.9999 6.03745 24.5157 6.18474 22.7876L7.04179 13.7314ZM8.83284 15.2683L8.17751 22.9574C8.12971 23.5182 8.57204 23.9999 9.1349 23.9999C9.62425 23.9999 10.0354 23.6321 10.0898 23.1458L10.9099 15.8125L8.83284 15.2683Z" fill="#454C59"/>
<path fill-rule="evenodd" clip-rule="evenodd" d="M24 2.70752V19.2465L4 14.802V7.8927L24 2.70752ZM6 9.44031V13.1977L22 16.7532V5.29216L6 9.44031Z" fill="#0097DB"/>
<path fill-rule="evenodd" clip-rule="evenodd" d="M22 3C22 1.34315 23.3431 0 25 0C26.6569 0 28 1.34315 28 3V19C28 20.6569 26.6569 22 25 22C23.3431 22 22 20.6569 22 19V3ZM25 2C24.4477 2 24 2.44772 24 3V19C24 19.5523 24.4477 20 25 20C25.5523 20 26 19.5523 26 19V3C26 2.44772 25.5523 2 25 2Z" fill="#454C59"/>
<path fill-rule="evenodd" clip-rule="evenodd" d="M26 7H29C30.6569 7 32 8.34315 32 10V12.6667C32 14.3235 30.6569 15.6667 29 15.6667H26V7ZM28 9V13.6667H29C29.5523 13.6667 30 13.219 30 12.6667V10C30 9.44772 29.5523 9 29 9H28Z" fill="#454C59"/>
<path fill-rule="evenodd" clip-rule="evenodd" d="M0 9C0 7.34315 1.34315 6 3 6C4.65685 6 6 7.34315 6 9V13C6 14.6569 4.65685 16 3 16C1.34315 16 0 14.6569 0 13V9ZM3 8C2.44772 8 2 8.44772 2 9V13C2 13.5523 2.44772 14 3 14C3.55228 14 4 13.5523 4 13V9C4 8.44772 3.55228 8 3 8Z" fill="#454C59"/>
</svg>
